<svg xmlns="http://www.w3.org/2000/svg" width="375" viewBox="0 0 375 375" height="375" version="1.0"><defs><clipPath id="a"><path d="M 117.351562 140.257812 L 148.851562 140.257812 L 148.851562 171.757812 L 117.351562 171.757812 Z M 117.351562 140.257812"/></clipPath><clipPath id="b"><path d="M 189.714844 140.257812 L 221.214844 140.257812 L 221.214844 171.757812 L 189.714844 171.757812 Z M 189.714844 140.257812"/></clipPath><clipPath id="c"><path d="M 225.894531 140.257812 L 257.394531 140.257812 L 257.394531 171.757812 L 225.894531 171.757812 Z M 225.894531 140.257812"/></clipPath><clipPath id="d"><path d="M 153.53125 140.257812 L 185.03125 140.257812 L 185.03125 171.757812 L 153.53125 171.757812 Z M 153.53125 140.257812"/></clipPath></defs><g clip-path="url(#a)"><path fill="#EC6B25" d="M 141.144531 158.261719 L 135.355469 158.261719 L 135.355469 164.050781 C 135.355469 165.292969 134.347656 166.300781 133.105469 166.300781 C 131.863281 166.300781 130.855469 165.292969 130.855469 164.050781 L 130.855469 158.261719 L 125.066406 158.261719 C 123.824219 158.261719 122.816406 157.253906 122.816406 156.011719 C 122.816406 154.769531 123.824219 153.761719 125.066406 153.761719 L 130.855469 153.761719 L 130.855469 147.976562 C 130.855469 146.730469 131.863281 145.722656 133.105469 145.722656 C 134.347656 145.722656 135.355469 146.730469 135.355469 147.976562 L 135.355469 153.761719 L 141.144531 153.761719 C 142.386719 153.761719 143.394531 154.769531 143.394531 156.011719 C 143.394531 157.253906 142.386719 158.261719 141.144531 158.261719 Z M 143.394531 140.257812 L 122.816406 140.257812 C 119.796875 140.257812 117.351562 142.707031 117.351562 145.722656 L 117.351562 166.300781 C 117.351562 169.320312 119.796875 171.765625 122.816406 171.765625 L 143.394531 171.765625 C 146.414062 171.765625 148.859375 169.320312 148.859375 166.300781 L 148.859375 145.722656 C 148.859375 142.707031 146.414062 140.257812 143.394531 140.257812"/></g><g clip-path="url(#b)"><path fill="#EC6B25" d="M 212.742188 160.105469 C 213.621094 160.984375 213.621094 162.410156 212.742188 163.285156 C 212.304688 163.726562 211.726562 163.949219 211.152344 163.949219 C 210.574219 163.949219 210 163.726562 209.5625 163.285156 L 205.46875 159.195312 L 201.375 163.285156 C 200.9375 163.726562 200.359375 163.949219 199.785156 163.949219 C 199.207031 163.949219 198.632812 163.726562 198.191406 163.285156 C 197.3125 162.410156 197.3125 160.984375 198.191406 160.105469 L 202.285156 156.011719 L 198.191406 151.921875 C 197.3125 151.039062 197.3125 149.613281 198.191406 148.738281 C 199.070312 147.859375 200.496094 147.859375 201.375 148.738281 L 205.46875 152.832031 L 209.5625 148.738281 C 210.4375 147.859375 211.863281 147.859375 212.742188 148.738281 C 213.621094 149.613281 213.621094 151.039062 212.742188 151.921875 L 208.652344 156.011719 Z M 215.757812 140.257812 L 195.179688 140.257812 C 192.160156 140.257812 189.714844 142.707031 189.714844 145.722656 L 189.714844 166.300781 C 189.714844 169.320312 192.160156 171.765625 195.179688 171.765625 L 215.757812 171.765625 C 218.777344 171.765625 221.222656 169.320312 221.222656 166.300781 L 221.222656 145.722656 C 221.222656 142.707031 218.777344 140.257812 215.757812 140.257812"/></g><g clip-path="url(#c)"><path d="M 249.6875 158.261719 L 233.609375 158.261719 C 232.367188 158.261719 231.359375 157.253906 231.359375 156.011719 C 231.359375 154.769531 232.367188 153.761719 233.609375 153.761719 L 249.6875 153.761719 C 250.929688 153.761719 251.9375 154.769531 251.9375 156.011719 C 251.9375 157.253906 250.929688 158.261719 249.6875 158.261719 Z M 243.238281 165.640625 C 242.820312 166.058594 242.242188 166.300781 241.648438 166.300781 C 241.5 166.300781 241.355469 166.28125 241.210938 166.257812 C 241.0625 166.226562 240.921875 166.1875 240.789062 166.128906 C 240.652344 166.070312 240.523438 166 240.402344 165.925781 C 240.277344 165.839844 240.164062 165.742188 240.058594 165.640625 C 239.636719 165.222656 239.398438 164.644531 239.398438 164.050781 C 239.398438 163.460938 239.636719 162.875 240.058594 162.457031 C 240.164062 162.355469 240.277344 162.265625 240.402344 162.179688 C 240.523438 162.097656 240.652344 162.027344 240.789062 161.972656 C 240.921875 161.917969 241.0625 161.871094 241.210938 161.847656 C 241.5 161.78125 241.796875 161.78125 242.085938 161.847656 C 242.234375 161.871094 242.375 161.917969 242.511719 161.972656 C 242.644531 162.027344 242.773438 162.097656 242.898438 162.179688 C 243.027344 162.265625 243.132812 162.355469 243.242188 162.457031 C 243.664062 162.875 243.898438 163.460938 243.898438 164.050781 C 243.898438 164.644531 243.664062 165.222656 243.238281 165.640625 Z M 240.054688 146.382812 C 240.164062 146.277344 240.277344 146.1875 240.402344 146.105469 C 240.523438 146.019531 240.652344 145.949219 240.789062 145.898438 C 240.921875 145.839844 241.0625 145.796875 241.210938 145.769531 C 241.9375 145.621094 242.714844 145.859375 243.238281 146.382812 C 243.664062 146.796875 243.898438 147.382812 243.898438 147.976562 C 243.898438 148.566406 243.664062 149.148438 243.238281 149.5625 C 243.132812 149.667969 243.019531 149.761719 242.898438 149.847656 C 242.773438 149.925781 242.644531 149.996094 242.511719 150.050781 C 242.375 150.109375 242.234375 150.148438 242.085938 150.179688 C 241.945312 150.207031 241.796875 150.226562 241.648438 150.226562 C 241.058594 150.226562 240.480469 149.980469 240.054688 149.5625 C 239.636719 149.148438 239.398438 148.566406 239.398438 147.976562 C 239.398438 147.382812 239.636719 146.796875 240.054688 146.382812 Z M 251.9375 140.257812 L 231.359375 140.257812 C 228.339844 140.257812 225.894531 142.707031 225.894531 145.722656 L 225.894531 166.300781 C 225.894531 169.320312 228.339844 171.765625 231.359375 171.765625 L 251.9375 171.765625 C 254.957031 171.765625 257.402344 169.320312 257.402344 166.300781 L 257.402344 145.722656 C 257.402344 142.707031 254.957031 140.257812 251.9375 140.257812"/></g><g clip-path="url(#d)"><path d="M 177.324219 158.261719 L 161.246094 158.261719 C 160.003906 158.261719 159 157.253906 159 156.011719 C 159 154.769531 160.003906 153.761719 161.246094 153.761719 L 177.324219 153.761719 C 178.566406 153.761719 179.574219 154.769531 179.574219 156.011719 C 179.574219 157.253906 178.566406 158.261719 177.324219 158.261719 Z M 179.574219 140.257812 L 159 140.257812 C 155.976562 140.257812 153.53125 142.707031 153.53125 145.722656 L 153.53125 166.300781 C 153.53125 169.320312 155.976562 171.765625 159 171.765625 L 179.574219 171.765625 C 182.59375 171.765625 185.042969 169.320312 185.042969 166.300781 L 185.042969 145.722656 C 185.042969 142.707031 182.59375 140.257812 179.574219 140.257812"/></g><g><g><g><path d="M 19.953125 0 L 19.953125 -7.4375 C 19.953125 -8.351562 19.984375 -9.296875 20.046875 -10.265625 C 20.117188 -11.242188 20.195312 -12.0625 20.28125 -12.71875 C 20.363281 -13.375 20.414062 -13.796875 20.4375 -13.984375 L 20.3125 -13.984375 L 16.5 0 L 11.3125 0 L 7.46875 -13.953125 L 7.34375 -13.953125 C 7.363281 -13.773438 7.421875 -13.359375 7.515625 -12.703125 C 7.609375 -12.054688 7.691406 -11.242188 7.765625 -10.265625 C 7.847656 -9.296875 7.890625 -8.351562 7.890625 -7.4375 L 7.890625 0 L 1.796875 0 L 1.796875 -20.640625 L 11.15625 -20.640625 L 14.28125 -8.734375 L 14.40625 -8.734375 L 17.484375 -20.640625 L 26.515625 -20.640625 L 26.515625 0 Z M 19.953125 0" transform="translate(138.345 209.114)"/></g></g></g><g><g><g><path d="M 16.046875 0 L 15.1875 -2.90625 L 7.953125 -2.90625 L 7.078125 0 L 0.296875 0 L 7.828125 -20.640625 L 15.546875 -20.640625 L 23.0625 0 Z M 9.328125 -7.53125 L 13.796875 -7.53125 L 11.640625 -14.875 L 11.515625 -14.875 Z M 9.328125 -7.53125" transform="translate(166.665 209.114)"/></g></g></g><g><g><g><path d="M 14.09375 -15.359375 L 14.09375 0 L 7.46875 0 L 7.46875 -15.359375 L 0.6875 -15.359375 L 0.6875 -20.640625 L 20.84375 -20.640625 L 20.84375 -15.359375 Z M 14.09375 -15.359375" transform="translate(190.005 209.114)"/></g></g></g><g><g><g><path d="M 16.140625 0 L 16.140625 -7.828125 L 8.84375 -7.828125 L 8.84375 0 L 2.21875 0 L 2.21875 -20.640625 L 8.84375 -20.640625 L 8.84375 -13.109375 L 16.140625 -13.109375 L 16.140625 -20.640625 L 22.765625 -20.640625 L 22.765625 0 Z M 16.140625 0" transform="translate(211.665 209.114)"/></g></g></g><g><g><g><path d="M 8.9375 0 L 8.9375 -5.84375 C 8.9375 -5.96875 8.9375 -6.097656 8.9375 -6.234375 C 8.9375 -6.367188 8.957031 -6.9375 9 -7.9375 C 8.675781 -6.707031 8.4375 -5.851562 8.28125 -5.375 L 6.546875 0 L 5.109375 0 L 3.375 -5.375 L 2.640625 -7.9375 C 2.703125 -6.875 2.734375 -6.175781 2.734375 -5.84375 L 2.734375 0 L 0.9375 0 L 0.9375 -9.625 L 3.640625 -9.625 L 5.359375 -4.25 L 5.515625 -3.71875 L 5.84375 -2.4375 L 6.265625 -3.984375 L 8.046875 -9.625 L 10.71875 -9.625 L 10.71875 0 Z M 8.9375 0" transform="translate(103.855 230.214)"/></g></g></g><g><g><g><path d="M 4.9375 0.140625 C 3.613281 0.140625 2.597656 -0.179688 1.890625 -0.828125 C 1.191406 -1.484375 0.84375 -2.410156 0.84375 -3.609375 L 0.84375 -9.625 L 2.859375 -9.625 L 2.859375 -3.765625 C 2.859375 -3.003906 3.035156 -2.425781 3.390625 -2.03125 C 3.753906 -1.632812 4.289062 -1.4375 5 -1.4375 C 5.71875 -1.4375 6.269531 -1.644531 6.65625 -2.0625 C 7.039062 -2.476562 7.234375 -3.066406 7.234375 -3.828125 L 7.234375 -9.625 L 9.25 -9.625 L 9.25 -3.71875 C 9.25 -2.488281 8.875 -1.535156 8.125 -0.859375 C 7.375 -0.191406 6.3125 0.140625 4.9375 0.140625 Z M 4.9375 0.140625" transform="translate(117.387 230.214)"/></g></g></g><g><g><g><path d="M 0.9375 0 L 0.9375 -9.625 L 2.953125 -9.625 L 2.953125 -1.5625 L 8.125 -1.5625 L 8.125 0 Z M 0.9375 0" transform="translate(129.368 230.214)"/></g></g></g><g><g><g><path d="M 5.28125 -8.078125 L 5.28125 0 L 3.265625 0 L 3.265625 -8.078125 L 0.15625 -8.078125 L 0.15625 -9.625 L 8.40625 -9.625 L 8.40625 -8.078125 Z M 5.28125 -8.078125" transform="translate(139.79 230.214)"/></g></g></g><g><g><g><path d="M 0.9375 0 L 0.9375 -9.625 L 2.953125 -9.625 L 2.953125 0 Z M 0.9375 0" transform="translate(150.214 230.214)"/></g></g></g><g><g><g><path d="M 8.859375 -6.578125 C 8.859375 -5.960938 8.71875 -5.410156 8.4375 -4.921875 C 8.15625 -4.429688 7.75 -4.050781 7.21875 -3.78125 C 6.695312 -3.519531 6.070312 -3.390625 5.34375 -3.390625 L 2.953125 -3.390625 L 2.953125 0 L 0.9375 0 L 0.9375 -9.625 L 5.265625 -9.625 C 6.421875 -9.625 7.304688 -9.359375 7.921875 -8.828125 C 8.546875 -8.304688 8.859375 -7.554688 8.859375 -6.578125 Z M 6.828125 -6.546875 C 6.828125 -7.554688 6.226562 -8.0625 5.03125 -8.0625 L 2.953125 -8.0625 L 2.953125 -4.9375 L 5.09375 -4.9375 C 5.644531 -4.9375 6.070312 -5.070312 6.375 -5.34375 C 6.675781 -5.625 6.828125 -6.023438 6.828125 -6.546875 Z M 6.828125 -6.546875" transform="translate(155.977 230.214)"/></g></g></g><g><g><g><path d="M 0.9375 0 L 0.9375 -9.625 L 2.953125 -9.625 L 2.953125 -1.5625 L 8.125 -1.5625 L 8.125 0 Z M 0.9375 0" transform="translate(167.186 230.214)"/></g></g></g><g><g><g><path d="M 0.9375 0 L 0.9375 -9.625 L 8.515625 -9.625 L 8.515625 -8.078125 L 2.953125 -8.078125 L 2.953125 -5.65625 L 8.09375 -5.65625 L 8.09375 -4.09375 L 2.953125 -4.09375 L 2.953125 -1.5625 L 8.796875 -1.5625 L 8.796875 0 Z M 0.9375 0" transform="translate(177.609 230.214)"/></g></g></g><g><g><g><path d="M 7.546875 0 L 5.3125 -3.65625 L 2.953125 -3.65625 L 2.953125 0 L 0.9375 0 L 0.9375 -9.625 L 5.75 -9.625 C 6.894531 -9.625 7.78125 -9.378906 8.40625 -8.890625 C 9.03125 -8.398438 9.34375 -7.691406 9.34375 -6.765625 C 9.34375 -6.085938 9.148438 -5.503906 8.765625 -5.015625 C 8.390625 -4.523438 7.875 -4.203125 7.21875 -4.046875 L 9.828125 0 Z M 7.3125 -6.671875 C 7.3125 -7.597656 6.71875 -8.0625 5.53125 -8.0625 L 2.953125 -8.0625 L 2.953125 -5.21875 L 5.59375 -5.21875 C 6.15625 -5.21875 6.582031 -5.34375 6.875 -5.59375 C 7.164062 -5.851562 7.3125 -6.210938 7.3125 -6.671875 Z M 7.3125 -6.671875" transform="translate(194.58 230.214)"/></g></g></g><g><g><g><path d="M 0.9375 0 L 0.9375 -9.625 L 8.515625 -9.625 L 8.515625 -8.078125 L 2.953125 -8.078125 L 2.953125 -5.65625 L 8.09375 -5.65625 L 8.09375 -4.09375 L 2.953125 -4.09375 L 2.953125 -1.5625 L 8.796875 -1.5625 L 8.796875 0 Z M 0.9375 0" transform="translate(206.562 230.214)"/></g></g></g><g><g><g><path d="M 8.796875 -2.78125 C 8.796875 -1.832031 8.441406 -1.109375 7.734375 -0.609375 C 7.035156 -0.109375 6.007812 0.140625 4.65625 0.140625 C 3.425781 0.140625 2.457031 -0.078125 1.75 -0.515625 C 1.050781 -0.953125 0.601562 -1.617188 0.40625 -2.515625 L 2.359375 -2.828125 C 2.484375 -2.316406 2.738281 -1.945312 3.125 -1.71875 C 3.507812 -1.488281 4.039062 -1.375 4.71875 -1.375 C 6.125 -1.375 6.828125 -1.800781 6.828125 -2.65625 C 6.828125 -2.925781 6.742188 -3.148438 6.578125 -3.328125 C 6.421875 -3.515625 6.195312 -3.664062 5.90625 -3.78125 C 5.613281 -3.894531 5.050781 -4.039062 4.21875 -4.21875 C 3.488281 -4.382812 2.984375 -4.515625 2.703125 -4.609375 C 2.421875 -4.710938 2.164062 -4.832031 1.9375 -4.96875 C 1.707031 -5.113281 1.515625 -5.285156 1.359375 -5.484375 C 1.203125 -5.679688 1.078125 -5.910156 0.984375 -6.171875 C 0.898438 -6.429688 0.859375 -6.734375 0.859375 -7.078125 C 0.859375 -7.953125 1.179688 -8.617188 1.828125 -9.078125 C 2.484375 -9.546875 3.4375 -9.78125 4.6875 -9.78125 C 5.882812 -9.78125 6.78125 -9.59375 7.375 -9.21875 C 7.976562 -8.84375 8.363281 -8.222656 8.53125 -7.359375 L 6.578125 -7.09375 C 6.484375 -7.507812 6.28125 -7.820312 5.96875 -8.03125 C 5.664062 -8.238281 5.226562 -8.34375 4.65625 -8.34375 C 3.425781 -8.34375 2.8125 -7.960938 2.8125 -7.203125 C 2.8125 -6.953125 2.875 -6.742188 3 -6.578125 C 3.132812 -6.421875 3.328125 -6.285156 3.578125 -6.171875 C 3.835938 -6.066406 4.359375 -5.925781 5.140625 -5.75 C 6.066406 -5.5625 6.726562 -5.382812 7.125 -5.21875 C 7.519531 -5.050781 7.832031 -4.851562 8.0625 -4.625 C 8.300781 -4.40625 8.484375 -4.140625 8.609375 -3.828125 C 8.734375 -3.523438 8.796875 -3.175781 8.796875 -2.78125 Z M 8.796875 -2.78125" transform="translate(217.77 230.214)"/></g></g></g><g><g><g><path d="M 4.9375 0.140625 C 3.613281 0.140625 2.597656 -0.179688 1.890625 -0.828125 C 1.191406 -1.484375 0.84375 -2.410156 0.84375 -3.609375 L 0.84375 -9.625 L 2.859375 -9.625 L 2.859375 -3.765625 C 2.859375 -3.003906 3.035156 -2.425781 3.390625 -2.03125 C 3.753906 -1.632812 4.289062 -1.4375 5 -1.4375 C 5.71875 -1.4375 6.269531 -1.644531 6.65625 -2.0625 C 7.039062 -2.476562 7.234375 -3.066406 7.234375 -3.828125 L 7.234375 -9.625 L 9.25 -9.625 L 9.25 -3.71875 C 9.25 -2.488281 8.875 -1.535156 8.125 -0.859375 C 7.375 -0.191406 6.3125 0.140625 4.9375 0.140625 Z M 4.9375 0.140625" transform="translate(228.979 230.214)"/></g></g></g><g><g><g><path d="M 0.9375 0 L 0.9375 -9.625 L 2.953125 -9.625 L 2.953125 -1.5625 L 8.125 -1.5625 L 8.125 0 Z M 0.9375 0" transform="translate(240.96 230.214)"/></g></g></g><g><g><g><path d="M 5.28125 -8.078125 L 5.28125 0 L 3.265625 0 L 3.265625 -8.078125 L 0.15625 -8.078125 L 0.15625 -9.625 L 8.40625 -9.625 L 8.40625 -8.078125 Z M 5.28125 -8.078125" transform="translate(251.383 230.214)"/></g></g></g><g><g><g><path d="M 8.796875 -2.78125 C 8.796875 -1.832031 8.441406 -1.109375 7.734375 -0.609375 C 7.035156 -0.109375 6.007812 0.140625 4.65625 0.140625 C 3.425781 0.140625 2.457031 -0.078125 1.75 -0.515625 C 1.050781 -0.953125 0.601562 -1.617188 0.40625 -2.515625 L 2.359375 -2.828125 C 2.484375 -2.316406 2.738281 -1.945312 3.125 -1.71875 C 3.507812 -1.488281 4.039062 -1.375 4.71875 -1.375 C 6.125 -1.375 6.828125 -1.800781 6.828125 -2.65625 C 6.828125 -2.925781 6.742188 -3.148438 6.578125 -3.328125 C 6.421875 -3.515625 6.195312 -3.664062 5.90625 -3.78125 C 5.613281 -3.894531 5.050781 -4.039062 4.21875 -4.21875 C 3.488281 -4.382812 2.984375 -4.515625 2.703125 -4.609375 C 2.421875 -4.710938 2.164062 -4.832031 1.9375 -4.96875 C 1.707031 -5.113281 1.515625 -5.285156 1.359375 -5.484375 C 1.203125 -5.679688 1.078125 -5.910156 0.984375 -6.171875 C 0.898438 -6.429688 0.859375 -6.734375 0.859375 -7.078125 C 0.859375 -7.953125 1.179688 -8.617188 1.828125 -9.078125 C 2.484375 -9.546875 3.4375 -9.78125 4.6875 -9.78125 C 5.882812 -9.78125 6.78125 -9.59375 7.375 -9.21875 C 7.976562 -8.84375 8.363281 -8.222656 8.53125 -7.359375 L 6.578125 -7.09375 C 6.484375 -7.507812 6.28125 -7.820312 5.96875 -8.03125 C 5.664062 -8.238281 5.226562 -8.34375 4.65625 -8.34375 C 3.425781 -8.34375 2.8125 -7.960938 2.8125 -7.203125 C 2.8125 -6.953125 2.875 -6.742188 3 -6.578125 C 3.132812 -6.421875 3.328125 -6.285156 3.578125 -6.171875 C 3.835938 -6.066406 4.359375 -5.925781 5.140625 -5.75 C 6.066406 -5.5625 6.726562 -5.382812 7.125 -5.21875 C 7.519531 -5.050781 7.832031 -4.851562 8.0625 -4.625 C 8.300781 -4.40625 8.484375 -4.140625 8.609375 -3.828125 C 8.734375 -3.523438 8.796875 -3.175781 8.796875 -2.78125 Z M 8.796875 -2.78125" transform="translate(261.806 230.214)"/></g></g></g></svg>